<svg xmlns:xlink="http://www.w3.org/1999/xlink" width="400" height="400" viewBox="0 0 32 32" class="emerald-icon" fill="none" xmlns="http://www.w3.org/2000/svg"><title>Accolades</title><path d="M11.5 26H16H20.5L25 21V16.0897V11.0001L20.5 6.0001H16H11.5L7 11.0001V16.0897V21L11.5 26Z" fill="url(&quot;#paint0_linear&quot;)"></path><path d="M21.7853 16.3904V20.3747L19.2139 22.8747H12.7853L10.2139 20.3747V16.3904V11.6248L12.7853 9.12476H16.321H19.2139L21.7853 11.6248V16.3904Z" fill="url(&quot;#paint1_linear&quot;)"></path><path opacity="0.5" d="M10.2139 11.6253L12.7853 13.5003L14.071 12.2503L12.7853 9.1253L10.2139 11.6253Z" fill="url(&quot;#paint2_linear&quot;)"></path><path d="M12.7857 22.875L11.5 26L7 21L10.2143 20.375L12.7857 22.875Z" fill="url(&quot;#paint3_linear&quot;)"></path><path d="M12.7857 9.12498L11.5 6L7 11L10.2143 11.625L12.7857 9.12498Z" fill="url(&quot;#paint4_linear&quot;)"></path><path d="M10.2143 20.3748L7 20.9998V10.9999C8.08482 11.2082 10.2143 11.6249 10.2143 11.6249V20.3748Z" fill="url(&quot;#paint5_linear&quot;)"></path><path d="M21.7857 20.3748L25 20.9998V10.9999C23.9152 11.2082 21.7857 11.6249 21.7857 11.6249V20.3748Z" fill="url(&quot;#paint6_linear&quot;)"></path><path d="M19.2143 22.875L20.5 26L25 21L21.7857 20.375L19.2143 22.875Z" fill="url(&quot;#paint7_linear&quot;)"></path><path d="M19.2143 9.12498L20.5 6L25 11L21.7857 11.625L19.2143 9.12498Z" fill="url(&quot;#paint8_linear&quot;)"></path><defs><linearGradient id="paint0_linear" x1="10.3077" y1="24.4615" x2="20.2515" y2="14.7599" gradientUnits="userSpaceOnUse"><stop stop-color="#65EAC5"></stop><stop offset="1" stop-color="#30AC72"></stop></linearGradient><linearGradient id="paint1_linear" x1="12.3402" y1="21.817" x2="19.1499" y2="15.6045" gradientUnits="userSpaceOnUse"><stop stop-color="#8DEED4"></stop><stop offset="1" stop-color="#5AD2AA"></stop></linearGradient><linearGradient id="paint2_linear" x1="13.4683" y1="13.2659" x2="12.2041" y2="10.2711" gradientUnits="userSpaceOnUse"><stop stop-color="#48E2B9"></stop><stop offset="1" stop-color="#06DEA4" stop-opacity="0"></stop></linearGradient><linearGradient id="paint3_linear" x1="12.3036" y1="23.5" x2="7.02343" y2="21.9365" gradientUnits="userSpaceOnUse"><stop stop-color="#5AD3AB"></stop><stop offset="1" stop-color="#45E0A6"></stop></linearGradient><linearGradient id="paint4_linear" x1="9.89286" y1="7.91405" x2="9.32261" y2="12.1372" gradientUnits="userSpaceOnUse"><stop stop-color="#3DB67C"></stop><stop offset="1" stop-color="#9BE6CA"></stop></linearGradient><linearGradient id="paint5_linear" x1="8.60714" y1="20.9998" x2="8.60714" y2="10.9999" gradientUnits="userSpaceOnUse"><stop stop-color="#3DC592"></stop><stop offset="1" stop-color="#81C9AE"></stop></linearGradient><linearGradient id="paint6_linear" x1="21.3839" y1="18.578" x2="26.3902" y2="12.1512" gradientUnits="userSpaceOnUse"><stop stop-color="#3CA57D"></stop><stop offset="1" stop-color="#70EAB1"></stop></linearGradient><linearGradient id="paint7_linear" x1="22.1071" y1="26" x2="22.1071" y2="20.375" gradientUnits="userSpaceOnUse"><stop stop-color="#34AC7F"></stop><stop offset="1" stop-color="#59CDA7"></stop></linearGradient><linearGradient id="paint8_linear" x1="22.1071" y1="6" x2="22.1071" y2="11.625" gradientUnits="userSpaceOnUse"><stop stop-color="#3DC592"></stop><stop offset="1" stop-color="#F9D0D0" stop-opacity="0"></stop></linearGradient><linearGradient id="paint0_linear" x1="10.3077" y1="24.4615" x2="20.2515" y2="14.7599" gradientUnits="userSpaceOnUse"><stop stop-color="#65EAC5"></stop><stop offset="1" stop-color="#30AC72"></stop></linearGradient><linearGradient id="paint1_linear" x1="12.3402" y1="21.817" x2="19.1499" y2="15.6045" gradientUnits="userSpaceOnUse"><stop stop-color="#8DEED4"></stop><stop offset="1" stop-color="#5AD2AA"></stop></linearGradient><linearGradient id="paint2_linear" x1="13.4683" y1="13.2659" x2="12.2041" y2="10.2711" gradientUnits="userSpaceOnUse"><stop stop-color="#48E2B9"></stop><stop offset="1" stop-color="#06DEA4" stop-opacity="0"></stop></linearGradient><linearGradient id="paint3_linear" x1="12.3036" y1="23.5" x2="7.02343" y2="21.9365" gradientUnits="userSpaceOnUse"><stop stop-color="#5AD3AB"></stop><stop offset="1" stop-color="#45E0A6"></stop></linearGradient><linearGradient id="paint4_linear" x1="9.89286" y1="7.91405" x2="9.32261" y2="12.1372" gradientUnits="userSpaceOnUse"><stop stop-color="#3DB67C"></stop><stop offset="1" stop-color="#9BE6CA"></stop></linearGradient><linearGradient id="paint5_linear" x1="8.60714" y1="20.9998" x2="8.60714" y2="10.9999" gradientUnits="userSpaceOnUse"><stop stop-color="#3DC592"></stop><stop offset="1" stop-color="#81C9AE"></stop></linearGradient><linearGradient id="paint6_linear" x1="21.3839" y1="18.578" x2="26.3902" y2="12.1512" gradientUnits="userSpaceOnUse"><stop stop-color="#3CA57D"></stop><stop offset="1" stop-color="#70EAB1"></stop></linearGradient><linearGradient id="paint7_linear" x1="22.1071" y1="26" x2="22.1071" y2="20.375" gradientUnits="userSpaceOnUse"><stop stop-color="#34AC7F"></stop><stop offset="1" stop-color="#59CDA7"></stop></linearGradient><linearGradient id="paint8_linear" x1="22.1071" y1="6" x2="22.1071" y2="11.625" gradientUnits="userSpaceOnUse"><stop stop-color="#3DC592"></stop><stop offset="1" stop-color="#F9D0D0" stop-opacity="0"></stop></linearGradient></defs></svg>